<?xml version="1.0" encoding="UTF-8" standalone="no"?>
<!DOCTYPE svg PUBLIC "-//W3C//DTD SVG 1.1//EN" "http://www.w3.org/Graphics/SVG/1.1/DTD/svg11.dtd">
<svg width="100%" height="100%" viewBox="0 0 100 100" version="1.1" xmlns="http://www.w3.org/2000/svg" xmlns:xlink="http://www.w3.org/1999/xlink" xml:space="preserve" style="fill-rule:evenodd;clip-rule:evenodd;stroke-linejoin:round;stroke-miterlimit:1.41421;">
    <g>
        <circle cx="49.506" cy="49.506" r="49.506" style="fill:#da5a47;"/>
    </g>
    <g id="Layer1">
        <g opacity="0.7">
            <g>
                <path d="M45.303,62.271c-1.194,0 -2.387,-0.436 -3.296,-1.305c-8.529,-8.145 -8.529,-21.399 0,-29.544l17.212,-16.44c4.131,-3.946 9.625,-6.119 15.469,-6.119c5.844,0 11.334,2.173 15.468,6.119c8.529,8.146 8.529,21.399 0,29.545l-7.869,7.515c-1.821,1.74 -4.771,1.74 -6.592,0c-1.822,-1.739 -1.822,-4.556 0,-6.296l7.869,-7.516c4.894,-4.674 4.894,-12.277 0,-16.952c-2.37,-2.263 -5.523,-3.51 -8.876,-3.51c-3.354,0 -6.504,1.247 -8.876,3.51l-17.213,16.44c-4.894,4.674 -4.894,12.278 0,16.952c1.822,1.74 1.822,4.557 0,6.296c-0.909,0.869 -2.103,1.305 -3.296,1.305l0,0Z" style="fill-rule:nonzero;"/>
                <path d="M28.787,94.484c-5.844,0 -11.337,-2.173 -15.468,-6.118c-8.529,-8.146 -8.529,-21.399 0,-29.545l7.869,-7.516c1.821,-1.74 4.773,-1.74 6.592,0c1.819,1.74 1.822,4.557 0,6.297l-7.869,7.515c-4.894,4.675 -4.894,12.278 0,16.953c2.37,2.263 5.523,3.509 8.876,3.509c3.354,0 6.504,-1.246 8.876,-3.509l17.213,-16.44c4.894,-4.675 4.894,-12.278 0,-16.952c-1.822,-1.74 -1.822,-4.557 0,-6.297c1.822,-1.74 4.771,-1.74 6.592,0c8.529,8.146 8.529,21.399 0,29.545l-17.212,16.44c-4.131,3.945 -9.625,6.118 -15.469,6.118l0,0Z" style="fill-rule:nonzero;"/>
            </g>
        </g>
    </g>
    <g id="Layer11">
        <g>
            <path d="M42.857,59.935c-1.193,0 -2.387,-0.436 -3.296,-1.304c-8.529,-8.146 -8.529,-21.399 0,-29.545l17.213,-16.44c4.131,-3.945 9.625,-6.118 15.468,-6.118c5.844,0 11.335,2.173 15.469,6.118c8.529,8.146 8.529,21.399 0,29.545l-7.869,7.516c-1.822,1.74 -4.771,1.74 -6.593,0c-1.822,-1.74 -1.822,-4.557 0,-6.297l7.869,-7.515c4.894,-4.675 4.894,-12.278 0,-16.953c-2.369,-2.263 -5.522,-3.509 -8.876,-3.509c-3.353,0 -6.503,1.246 -8.876,3.509l-17.213,16.44c-4.894,4.675 -4.894,12.278 0,16.952c1.822,1.74 1.822,4.557 0,6.297c-0.909,0.868 -2.102,1.304 -3.296,1.304l0,0Z" style="fill:#fff;fill-rule:nonzero;"/>
            <path d="M26.342,92.149c-5.844,0 -11.338,-2.173 -15.469,-6.119c-8.529,-8.146 -8.529,-21.399 0,-29.545l7.869,-7.515c1.822,-1.74 4.774,-1.74 6.593,0c1.818,1.739 1.821,4.556 0,6.296l-7.869,7.516c-4.895,4.674 -4.895,12.277 0,16.952c2.369,2.263 5.522,3.51 8.876,3.51c3.353,0 6.503,-1.247 8.876,-3.51l17.212,-16.44c4.895,-4.674 4.895,-12.278 0,-16.952c-1.821,-1.74 -1.821,-4.557 0,-6.296c1.822,-1.74 4.771,-1.74 6.593,0c8.529,8.145 8.529,21.399 0,29.544l-17.213,16.44c-4.131,3.946 -9.625,6.119 -15.468,6.119l0,0Z" style="fill:#fff;fill-rule:nonzero;"/>
        </g>
    </g>
</svg>
